# xmcd
#
# Track frame offsets:
#	150
#	10764
#	23320
#	36553
#	49584
#	63828
#	74733
#	87993
#	100910
#	110949
#	123680
#
# Disc length: 1783 seconds
#
# Revision: 1
# Processed by: cddbd v1.5.2PL0 Copyright (c) Steve Scherf et al.
# Submitted via: audiograbber 1.83.01
#
DISCID=9606f50b
DTITLE=ALFREDO GUTIÉRREZ - Alfredo Gutiérrez Y Su Conjunto
DYEAR=2010
DGENRE=Cumbia
TTITLE0=Cariño grande
TTITLE1=Jardín de fundación
TTITLE2=Tiempo de cometas
TTITLE3=La diosa coronada (La diosa)
TTITLE4=Estudiante acordeonero
TTITLE5=Cultivo de penas
TTITLE6=Sabor a primavera
TTITLE7=El niño inteligente
TTITLE8=Me casé
TTITLE9=Uno y uno son dos
TTITLE10=La novia del estudiante
EXTD=
EXTT0=
EXTT1=
EXTT2=
EXTT3=
EXTT4=
EXTT5=
EXTT6=
EXTT7=
EXTT8=
EXTT9=
EXTT10=
PLAYORDER=
